<?xml version="1.0" encoding="UTF-8"?>
<svg id="Layer_1" data-name="Layer 1" xmlns="http://www.w3.org/2000/svg" viewBox="0 0 292.28 186.67" fill="#7a4b32">
  <g id="V3mWgA">
    <g>
      <path class="cls-1" d="M14.24,84.26c7.15-8.68,15.55-16.33,23.22-24.6,6.31-6.8,12.97-13.39,18.36-20.88,9.88-13.72,21.28-25.87,34.19-36.68,4.21-3.53,7.71-2.52,10.08,2.5.91,1.93,2.42,3.58,3.23,5.54,1.21,2.94,2.93,6.06,2.86,9.06-.15,6.5-1.46,12.96-1.91,19.47-.11,1.65.87,4.3,2.08,4.83,1.18.52,3.63-.68,4.96-1.79,9.58-8.02,17.84-18.11,31.96-18.41,7.02-.15,14-1.37,20.89,1.22,4.92,1.85,10.04,3.19,15.01,4.93,8.47,2.96,17.58,4.9,25.15,9.42,8.34,4.98,16.16,10.89,25.59,13.52,6.58,1.83,12.04,4.96,16.71,9.79,6.11,6.33,12.04,12.87,18.52,18.8,7.33,6.71,13.92,13.79,17.56,23.22.65,1.69,1.34,3.59,2.59,4.8,5.94,5.73,6.21,13.66,6.74,20.7.76,10.07-.43,20.34-1.41,30.46-1.04,10.72-14.42,23.88-25.07,24.39-11.06.53-22.18.13-33.26.03-11.27-.11-22.54-.46-33.81-.51-15.82-.06-31.63,0-47.45.12-18.61.14-37.22.2-55.83.66-13.99.35-27.97,1.56-41.96,1.82-6.7.12-13.43-1.04-20.14-1.7-8.46-.84-13.47-7.49-19.85-11.85-9.25-6.32-14.7-14.35-12.92-26.12,1.66-10.93,3.14-21.88,4.71-32.82-1.21-11.32,2.26-21.48,9.2-29.9ZM9.42,147.31c-.19-.93-.47-1.94-.29-2.83.73-3.46-.23-8.38,5.16-8.27.74.02,1.67,5.88,1.97,9.09.51,5.49.74,11.02.77,16.53,0,1.64-1.08,3.28-2.3,4.71.03.32-.05.82.12.94,9.01,6.22,17.09,14.01,29.65,12.71,10.41-1.08,21.01-.14,31.44-1.09,25.43-2.34,50.8.28,76.2.15,26.14-.14,52.27-.65,78.41-.83,10.82-.07,21.64.53,32.45.39,8.9-.12,15.64-4.1,19.51-12.5,1.86-4.02,4.37-7.55,1.75-12.47-1.01-1.89-.1-5.15.63-7.57,4.46-14.83,1.62-28.31-6.88-40.96-3.2-4.76-5.34-10.38-9.11-14.57-5.88-6.54-12.76-12.18-19.18-18.23-4.12-3.88-8.02-8-12.31-11.67-1.83-1.57-4.3-2.6-6.65-3.32-10.81-3.28-20.37-8.84-29.81-14.94-4.66-3.01-10.27-4.77-15.65-6.39-8-2.41-16.17-4.22-24.28-6.26-10.5-2.64-20.83-2.67-30.61,2.63-2.1,1.14-3.86,2.91-5.7,4.48-6.22,5.28-12.19,10.86-18.68,15.79-3.49,2.65-7.77-1.14-7.26-6.49.4-4.21,1.62-8.34,2.14-12.54.6-4.83.47-9.77,1.33-14.54.77-4.28-2.15-6.37-4.32-8.8-2.67-3-8.63-1.78-11.7,1.81-13.43,15.75-26.77,31.58-40.45,47.11-5.06,5.75-11.1,10.63-16.44,16.15-9.33,9.63-16.37,20.57-18.02,34.26-1.58,13.14-3.5,26.26-4.38,39.46-.36,5.34,0,11.49,6.15,15.44-1.31-6.19-2.51-11.78-3.67-17.38Z"/>
      <path class="cls-1" d="M246.7,156.6c.81.5,3.64,1.33,4.78,3.19,1.75,2.83-.02,5.14-2.92,6.75-.85.47-1.52,2.64-1.15,3.59.55,1.42,2.27,3.61,3.2,3.47,6.75-1.02,13.63-1.93,20.06-4.09,5.03-1.69,5.63-7.77,1.95-11.41-5.55-5.48-5.67-6.77-2.52-14.32.7-1.68.72-3.81.52-5.67-.45-4.35-1.52-8.64-1.81-12.99-.38-5.72-4.07-12.42-7.89-13.36-6.23-1.54-12.99,1.56-15.53,8.32-3.39,9.01-6.22,18.28-8.58,27.62-1.58,6.26,1.59,9.26,9.86,8.9Z"/>
      <path class="cls-1" d="M197.84,83.64c3.46,6.46,6.39,12.05,9.44,17.58,1.03,1.87,2.51,3.49,3.49,5.38,4.32,8.34,12.05,7.32,17.66,1.21,3.21-3.49,6.04-7.31,9.23-10.81,4.11-4.52,7.25-9.1,5.57-15.81-2.41-9.67-8.55-14.86-18.13-16.28-1.07-.16-2.41.54-3.43,1.16-5.06,3.09-10.18,6.1-15.01,9.52-2.91,2.06-5.33,4.83-8.81,8.06Z"/>
      <path class="cls-1" d="M91.57,72.5c-11.14.36-16.21,6.92-14.79,18.48.55,4.49-.27,9.14.33,13.62.4,3.03,1.46,7.27,3.58,8.39,1.96,1.03,5.82-1.16,8.67-2.36,4.67-1.97,9.27-4.15,13.76-6.53,1.53-.81,2.95-2.28,3.81-3.79,1.94-3.39,3.14-7.23,5.29-10.46,3.4-5.12,3.05-9.84-2.34-12.3-5.72-2.61-11.89-4.24-17.86-6.3-.15.42-.29.83-.44,1.25Z"/>
      <path class="cls-1" d="M164.5,51.5c-2.08.81-3.44,1.56-4.88,1.86-2.64.54-5.36,1.21-8.01,1.09-3.93-.17-6.7,1.49-8.58,4.58-1.98,3.25-4.58,5.21-8.13,6.67-2.62,1.07-5.01,3.26-6.87,5.47-2.65,3.14-.56,5.76,2.36,6.88,5.33,2.05,7.13,6.45,8.78,11.18,1.23,3.51,2.92,8.08,6.85,7.38,3.25-.58,6.79-3.93,8.61-6.99,2.34-3.95,3.11-8.83,4.51-13.33,1.37-4.39,2.83-8.38,6.96-11.47,1.89-1.42,2.1-5.84,2-8.86-.05-1.58-2.42-3.09-3.59-4.45Z"/>
      <path class="cls-1" d="M135.25,116.53c-2.32-1.22-3.01-1.79-3.79-1.95-3.11-.63-3.68-2.45-1.3-4.18,7.58-5.48,7-13.28,5.73-20.83-.46-2.73-3.39-5.53-5.9-7.29-2.91-2.04-5.93-.16-6.06,3.37-.18,4.58-1.71,8.42-5.46,11.1-3.03,2.17-4.07,5.28-5.73,8.4-2.41,4.51-7.37,7.48-13.15,8.32-2.26.33-5.21,1.74-6.26,3.57-3.39,5.9-.08,8.53,5.82,9.86,2.1.47,4.67-.09,6.78-.86,7.78-2.84,15.59-5.13,24-5.3,1.59-.03,3.14-2.42,5.33-4.23Z"/>
      <path class="cls-1" d="M24.77,159.65c-.06,2.79,1.34,4.77,5.43,5.18,3.35.33,6.56,1.96,9.88,2.83,1.97.52,4.19,1.34,6.02.89,5.52-1.34,10.99-2.99,16.31-5,3.8-1.44,4.11-6.07.5-8.12-3.23-1.84-6.83-3.21-10.43-4.17-6.71-1.8-7.6-3.32-4.58-9.34,2.21-4.4.59-10.38-3.09-11.39-4.75-1.31-14.81,3.43-16.05,8.23-1.7,6.57-2.6,13.34-4,20.89Z"/>
      <path class="cls-1" d="M208.55,149.62c2.85,0,4.64.06,6.43-.01,4.15-.17,5.66-2.51,5.62-6.49-.03-3.22.6-6.45.54-9.67-.05-2.85-.14-5.9-1.19-8.46-.65-1.57-3.21-3.38-4.79-3.28-1.88.13-3.89,1.94-5.39,3.47-3.62,3.68-6.44,8.39-10.56,11.28-9.01,6.3-9.56,11.81-1.12,19.04,4.52,3.87,8.56,8.31,13.13,12.12,1.37,1.14,4.39,2.03,5.58,1.3,2.45-1.53,4.62-4.08,1.42-7.27-2.66-2.65-5.23-5.38-7.7-8.2-.79-.9-1.13-2.18-1.96-3.83Z"/>
      <path class="cls-1" d="M201.34,58.86c-1.44-2.1-2.4-4.12-3.9-5.6-7.43-7.33-13.52-9.41-20.36-5.42-3.15,1.84-3.79,4.01-2.31,7.46,1.14,2.64,1.69,5.67,1.85,8.56.43,8.22,5.56,11.31,12.67,7.21,2.97-1.71,5.9-3.62,8.4-5.93,1.55-1.43,2.25-3.78,3.65-6.28Z"/>
      <path class="cls-1" d="M184.16,111.58c1.49,3.77,3.27,10.24,6.54,15.85,1.93,3.3,7.19,2.45,9.68-.61,2.44-3,4.84-6.05,6.97-9.27.82-1.24,1.36-3.07,1.16-4.51-.55-3.97-10.92-12.94-14.79-13.16-6.22-.35-9.35,2.61-9.57,11.69Z"/>
      <path class="cls-1" d="M147.85,173.02c7.16-.79,13.95-5.33,15.42-12.04.64-2.92-.14-7.5-2.12-9.25-1.74-1.54-6.1-.51-9.2,0-2.28.37-4.57,1.47-6.57,2.7-3.31,2.04-6.96,3.96-9.45,6.82-3.27,3.77-.85,9.32,4.23,10.68,2.48.66,5.11.75,7.67,1.09Z"/>
      <path class="cls-1" d="M155.48,129.79c-.05-4.39-3.97-10.6-7.03-11.17-3.48-.65-9.07,3.21-11.66,7.05-3.67,5.44-4.1,10.59-.25,15.98,2.34,3.26,5.27,4.66,9.28,3.2,8.67-3.14,9.78-4.83,9.65-15.06Z"/>
      <path class="cls-1" d="M34.08,93.99c3.96.52,7.95,1.59,11.86,1.37,2.69-.15,5.64-1.64,7.83-3.35,2.89-2.26,5.24-5.25,7.62-8.09,1.12-1.33,2.03-2.97,2.59-4.62,1.25-3.66-.86-5.91-4.53-4.94-1.09.29-2.6.76-3,1.59-3.03,6.29-8.2,5.52-13.68,4.68-6.12-.94-10.46,2.32-13.66,7.06-.88,1.31-1.42,4.07-.67,4.96,1.14,1.37,3.53,1.7,5.39,2.47.09-.37.17-.75.26-1.12Z"/>
      <path class="cls-1" d="M27.35,99.04c-1.26-.45-2.97-.54-3.69-1.43-2.86-3.52-4.9-1.85-6.27,1-1.55,3.25-2.92,6.71-3.5,10.23-.3,1.8.85,4.42,2.24,5.67.73.66,3.54-.56,5.16-1.42,2.83-1.5,5.35-3.57,8.19-5.04,2.62-1.36,5.39-2.85,4.02-6.07-.8-1.87-3.42-2.96-5.23-4.4-.31.49-.62.97-.92,1.46Z"/>
      <path class="cls-1" d="M180.06,170.38c4.12.8,5.95-1.19,5.95-5.1,0-4.35-3.76-11.13-5.89-10.91-2.44.25-7.25,8.58-6.83,12.59.44,4.2,3.78,3.7,6.76,3.42Z"/>
      <path class="cls-1" d="M166.86,146.42c6.6,1.17,10.48-2.1,12.14-7.98.54-1.92.16-5.11-1.1-6.21-1.1-.96-4.38-.38-6.12.57-4.57,2.5-6.85,9.66-4.91,13.62Z"/>
      <path class="cls-1" d="M157.59,105.26c-.22,4.9,3.45,5.43,6.59,5.87,3.41.48,7.72-3.44,6.53-6.06-1.44-3.15-3.92-6.38-6.82-8.12-2.29-1.38-6.38,4.37-6.29,8.31Z"/>
      <path class="cls-1" d="M123.22,49.02c-4.3.87-8.24,4.69-8.16,8.04.09,3.94,2.65,5.93,6.03,6.71,2.56.6,7.6-6.22,6.88-10.1-.33-1.79-3.09-3.12-4.75-4.66Z"/>
      <path class="cls-1" d="M62.79,130.69c-3.08.83-5.42,3.16-5.5,6.34-.08,3.55,1.71,6.07,6.22,5.95,4.86-.13,5.29-4.13,5.47-6.78.19-2.78-1.15-6.61-6.19-5.52Z"/>
      <path class="cls-1" d="M251.22,98.41c2.99,2.54,4.97,5.36,6.28,5.09,2.9-.62,5.46-2.8,8.16-4.34-2.1-2.02-3.97-5.21-6.39-5.69-1.88-.38-4.45,2.59-8.05,4.95Z"/>
      <path class="cls-1" d="M88.79,134.93c.39-.61,1.8-1.86,1.96-3.26.35-3.01-5.31-8.6-8.04-7.78-1.37.41-2.97,2.67-3.08,4.19-.31,4.39,2.81,6.92,9.16,6.85Z"/>
      <path class="cls-1" d="M92.4,16.36c-6.17.39-6.42,4.54-7.37,7.62-.31,1.01,2.36,4.14,2.84,3.97,2.85-1,7.25-.92,6.66-5.7-.27-2.16-1.49-4.2-2.13-5.89Z"/>
      <path class="cls-1" d="M85.53,33.39c-.94,3.03-2,6.04-2.72,9.13-.18.75.57,2.26,1.27,2.55,1.02.43,2.83.59,3.49-.02,1.84-1.71,4.54-3.9,4.5-5.84-.04-2.13-2.78-4.2-4.34-6.3-.73.16-1.46.32-2.19.48Z"/>
      <path class="cls-1" d="M112.99,134.76c3.81,2.06,6.26,3.94,5.68,8.41-.11.84,1.47,1.9,2.27,2.86.56-.13,1.13-.25,1.69-.38,0-4.09.09-8.19-.12-12.27-.02-.45-1.88-1.32-2.67-1.12-2.35.6-4.58,1.64-6.86,2.5Z"/>
      <path class="cls-1" d="M105.75,160.89c5.96-1.91,9.81-6.21,7.77-8.77-.76-.96-4.06-.6-5.83.1-4.6,1.82-4.89,3.57-1.93,8.67Z"/>
      <path class="cls-1" d="M151.28,47.27c2.67,1.57,3.72,2.68,4.85,2.77,3.31.26,7.93-3.45,7.21-5.91-.42-1.44-3.15-3.66-3.61-3.4-2.66,1.53-4.94,3.7-8.44,6.54Z"/>
      <path class="cls-1" d="M85.28,154.04c-1.59-3.42-2.11-7.77-6.95-6.89-1.06.19-2.4,3.85-2.07,5.63.59,3.18,4.37,3.66,9.01,1.26Z"/>
      <path class="cls-1" d="M158.57,124.26c2.1,1.96,3.53,4.17,5.43,4.71,1.03.29,4.08-2.28,4.09-3.58.04-3.04-1.79-5.97-5.35-5.71-1.28.09-2.39,2.54-4.17,4.58Z"/>
      <path class="cls-1" d="M68.77,70.61c2.81-2,7.62-.62,6.04-5.99-.87-2.96-2.5-4.2-5.54-2.77-5,2.35-.98,5.13-.5,8.76Z"/>
      <path class="cls-1" d="M71.33,172.42c2.21-2.26,4.04-4.14,5.87-6.02-1.07-.96-2.84-2.91-3.09-2.73-2.37,1.7-4.49,3.76-6.68,5.71.99.77,1.99,1.55,3.9,3.03Z"/>
      <path class="cls-1" d="M47.62,107.49c-2.14.53-3.77.49-4.75,1.28-1.7,1.36-3.1,3.16-4.35,4.96-.14.21,2.02,2.5,2.22,2.38,2.27-1.39,4.47-2.97,6.45-4.75.52-.47.24-1.82.43-3.86Z"/>
      <path class="cls-1" d="M226.92,167.27c1.64,1.81,3.01,4,3.57,3.81,1.78-.61,3.26-2.1,4.86-3.24-1.42-1.97-2.84-3.93-4.26-5.9-1.16,1.49-2.32,2.98-4.16,5.33Z"/>
      <path class="cls-1" d="M69.95,40.3c-2.33,3.26-4.02,5.3-5.16,7.6-.16.32,2.31,1.95,3.56,2.98,1.43-1.96,3.09-3.81,4.15-5.96.31-.62-1.09-2.09-2.55-4.62Z"/>
      <path class="cls-1" d="M126.59,146.87c-2.51,3.16-7.49,4.11-5.63,9.37,5.46-1.03,8.21-5.07,5.63-9.37Z"/>
      <path class="cls-1" d="M48.59,69.34c-1.81.4-3.63.79-5.44,1.19.44,1.33.49,3.35,1.39,3.86,3.37,1.88,4.02-.84,4.8-3.07l-.75-1.98Z"/>
    </g>
  </g>
</svg>